<svg width="32" height="32" viewBox="0 0 32 32" fill="none" xmlns="http://www.w3.org/2000/svg">
<g clip-path="url(#clip0_3801_274)">
<path fill-rule="evenodd" clip-rule="evenodd" d="M1.13951 4C0.837722 4.00075 0.548693 4.11927 0.335202 4.32917C0.121685 4.53907 0.00127387 4.82355 4.06198e-07 5.12055C-0.000254678 5.41833 0.119641 5.70431 0.333164 5.91546C0.546936 6.12663 0.83673 6.24563 1.13956 6.24639H2.11405C2.9962 6.24639 3.73494 6.854 3.89768 7.7074L6.45479 21.1182C6.79918 22.9252 8.41729 24.2447 10.2854 24.2447H26.2853C28.1552 24.2447 29.7661 22.9006 30.0735 21.0853L31.984 9.8092C32.0401 9.48279 31.9472 9.14862 31.7304 8.89576C31.5133 8.64267 31.1942 8.49679 30.858 8.49654H6.37422L6.14667 7.29237C5.78391 5.38919 4.08137 4.00017 2.11404 4.00017L1.13951 4ZM6.80399 10.7472H29.5082L27.8207 20.7152C27.6944 21.461 27.0531 21.994 26.285 21.994H10.2851C9.50243 21.994 8.84323 21.4605 8.6991 20.7032L6.80399 10.7472ZM12.5711 25.3695C10.691 25.3695 9.14122 26.8948 9.14122 28.7454C9.14122 30.5959 10.6909 32.1212 12.5711 32.1212C14.4512 32.1212 16.0009 30.5959 16.0009 28.7454C16.0009 26.8949 14.4512 25.3695 12.5711 25.3695ZM23.9989 25.3695C22.1188 25.3695 20.5691 26.8948 20.5691 28.7454C20.5691 30.5959 22.1188 32.1212 23.9989 32.1212C25.879 32.1212 27.4288 30.5959 27.4288 28.7454C27.4288 26.8949 25.8791 25.3695 23.9989 25.3695ZM12.5711 27.6205C13.2157 27.6205 13.7139 28.1109 13.7139 28.7454C13.7139 29.3799 13.2157 29.8702 12.5711 29.8702C11.9264 29.8702 11.4282 29.3799 11.4282 28.7454C11.4282 28.1109 11.9264 27.6205 12.5711 27.6205ZM23.9989 27.6205C24.6436 27.6205 25.1418 28.1109 25.1418 28.7454C25.1418 29.3799 24.6436 29.8702 23.9989 29.8702C23.3543 29.8702 22.8561 29.3799 22.8561 28.7454C22.8561 28.1109 23.3543 27.6205 23.9989 27.6205Z" fill="black"/>
<rect x="10" width="18" height="18" rx="9" fill="#ECBA00"/>
<path d="M16.3477 13V11.7358L19.0004 9.41335C19.1993 9.23343 19.3686 9.06889 19.5083 8.91974C19.6479 8.76823 19.7545 8.61671 19.8279 8.4652C19.9012 8.31132 19.9379 8.14441 19.9379 7.96449C19.9379 7.76326 19.8941 7.59162 19.8066 7.44957C19.719 7.30516 19.5982 7.19389 19.4443 7.11577C19.2905 7.03764 19.1141 6.99858 18.9152 6.99858C18.714 6.99858 18.5376 7.04001 18.3861 7.12287C18.2346 7.20336 18.1162 7.32055 18.031 7.47443C17.9481 7.62831 17.9067 7.81534 17.9067 8.03551H16.2412C16.2412 7.54072 16.3525 7.1134 16.575 6.75355C16.7976 6.3937 17.1101 6.11671 17.5125 5.92259C17.9173 5.72609 18.3873 5.62784 18.9223 5.62784C19.4739 5.62784 19.9533 5.72017 20.3605 5.90483C20.7677 6.08949 21.0826 6.34754 21.3051 6.67898C21.53 7.00805 21.6425 7.39039 21.6425 7.82599C21.6425 8.10298 21.5869 8.3776 21.4756 8.64986C21.3643 8.92211 21.1643 9.22277 20.8754 9.55185C20.589 9.88092 20.1818 10.2751 19.6539 10.7344L18.7838 11.5369V11.5831H21.7313V13H16.3477Z" fill="#333333"/>
</g>
<defs>
<clipPath id="clip0_3801_274">
<rect width="32" height="32" fill="white"/>
</clipPath>
</defs>
</svg>
