<svg width="24" height="24" viewBox="0 0 24 24" fill="none" xmlns="http://www.w3.org/2000/svg">
<g clip-path="url(#clip0_3801_60)">
<path d="M12.886 6.20579C14.1062 6.41487 15.2196 6.99318 16.1103 7.87845C16.9966 8.76371 17.5755 9.87585 17.7849 11.0992C17.865 11.5797 18.2792 11.9266 18.7691 11.9266C18.8314 11.9266 18.8893 11.9177 18.9294 11.9133C18.9339 11.9133 18.9339 11.9133 18.9383 11.9088C19.2055 11.8644 19.4371 11.722 19.5885 11.4996C19.7399 11.2816 19.8023 11.0191 19.7533 10.7567C19.4772 9.12849 18.7067 7.64267 17.5265 6.4638C16.3419 5.28493 14.8544 4.51533 13.2245 4.23952H13.22C12.6767 4.15055 12.1645 4.51533 12.071 5.05806C11.9819 5.60523 12.3471 6.11682 12.886 6.20579Z" fill="black"/>
<path d="M19.0233 14.5601C18.4799 13.9952 17.8164 13.6927 17.1127 13.6927C16.418 13.6927 15.7499 13.9863 15.1932 14.5468L13.8082 15.9303C13.7726 15.9125 13.7414 15.8947 13.7102 15.8814L13.639 15.8458C13.492 15.7702 13.3183 15.6856 13.1802 15.5967C11.7596 14.6936 10.4591 13.5103 9.20771 11.98C8.67329 11.3082 8.29474 10.7344 8.02307 10.165C8.37045 9.83577 8.69556 9.50658 8.99839 9.19518C9.0652 9.12845 9.13645 9.05728 9.20326 8.9861C9.27006 8.91492 9.34131 8.84374 9.41257 8.77257C9.99153 8.19425 10.2988 7.52252 10.2988 6.83299C10.2988 6.14347 9.99153 5.47618 9.41257 4.90232L8.06761 3.55885C7.98745 3.47878 7.91174 3.40315 7.83603 3.32753C7.76032 3.24745 7.68461 3.17183 7.6089 3.0962L7.50201 2.98499C7.2348 2.71362 6.96314 2.43336 6.68257 2.1798C6.14369 1.64152 5.48457 1.35681 4.79427 1.35681C4.10398 1.35681 3.44041 1.64152 2.87926 2.1798C2.87481 2.18424 2.87481 2.18424 2.87481 2.18424L1.18693 3.8658C0.496632 4.55533 0.104723 5.39611 0.020106 6.36145V6.36589C-0.0689644 7.50918 0.135897 8.71474 0.674773 10.165C1.48531 12.3537 2.70558 14.3822 4.5048 16.5487C6.70038 19.1644 9.34132 21.2285 12.343 22.6788H12.3474C13.5054 23.2304 15.0596 23.8799 16.8099 23.9911H16.8188H16.8321C16.9301 23.9956 17.037 24 17.1483 24C18.3775 24 19.4152 23.5551 20.2302 22.6743L20.2435 22.661C20.2524 22.6521 20.2613 22.6432 20.2658 22.6343C20.5107 22.3407 20.7913 22.0738 21.1031 21.7713C21.3213 21.5666 21.5395 21.3531 21.7577 21.1262C22.31 20.5479 22.6039 19.8762 22.5994 19.1867C22.595 18.4927 22.301 17.8254 21.7399 17.2693L19.0233 14.5601ZM18.756 21.3398C18.3241 21.8024 17.8253 22.007 17.1483 22.007C17.086 22.007 17.0147 22.0026 16.9435 21.9981C15.5406 21.9092 14.2135 21.3531 13.2159 20.8771C10.4591 19.5514 8.04089 17.6652 6.03235 15.263C4.38901 13.2834 3.28008 11.4417 2.54525 9.46654C2.1088 8.29212 1.93957 7.38017 2.01083 6.52159C2.05536 6.01891 2.24241 5.62298 2.59869 5.2671L4.27321 3.59444C4.4469 3.42539 4.6295 3.33642 4.79873 3.33642C4.95906 3.33642 5.12384 3.42539 5.30198 3.59889C5.30643 3.60334 5.30643 3.60334 5.31088 3.60778C5.60036 3.87915 5.88539 4.1683 6.18377 4.47081L6.19268 4.4797C6.33519 4.62651 6.49997 4.8 6.66921 4.96015L8.01417 6.30361C8.40608 6.69509 8.40608 6.9709 8.01417 7.36237C7.87165 7.50473 7.72914 7.64708 7.58663 7.79388L7.48865 7.8962C7.1101 8.27878 6.75382 8.63911 6.36637 8.98165C6.36191 8.9861 6.35301 8.99055 6.34855 8.99944L6.32628 9.02169C5.91656 9.43095 5.80077 9.92475 5.99672 10.4808C6.00118 10.4942 6.00563 10.5075 6.01009 10.5209C6.01454 10.5297 6.01454 10.5342 6.01899 10.5431C6.37973 11.4106 6.88743 12.238 7.66679 13.2211C7.66679 13.2256 7.67125 13.2256 7.67125 13.2256C9.05629 14.9249 10.5126 16.2551 12.1337 17.2827C12.3474 17.4161 12.5657 17.5273 12.7705 17.6297C12.9219 17.7053 13.0912 17.7943 13.2337 17.8788C13.2426 17.8877 13.2515 17.8921 13.2649 17.8966L13.2738 17.901C13.2871 17.9099 13.3049 17.9188 13.3183 17.9233C13.5321 18.03 13.7414 18.0834 13.9552 18.0834C14.3248 18.0834 14.6677 17.9322 14.9394 17.6386L16.6228 15.957C16.7431 15.8369 16.9346 15.6901 17.135 15.6901C17.322 15.6901 17.5002 15.8324 17.6159 15.957C17.6204 15.9614 17.6204 15.9614 17.6204 15.9614L20.3415 18.6795C20.6087 18.9464 20.7913 19.2623 20.3192 19.7605L20.3148 19.765C20.1678 19.9251 20.0075 20.0808 19.8383 20.241C19.8026 20.2766 19.767 20.3121 19.7269 20.3477C19.3884 20.6591 19.0633 20.975 18.756 21.3398Z" fill="black"/>
<path d="M23.985 10.5653C23.5352 7.9318 22.2882 5.52513 20.3777 3.61669C18.4582 1.70381 16.0533 0.458213 13.4124 0.0133563C12.8691 -0.075615 12.3569 0.289167 12.2634 0.831892C12.1743 1.37462 12.5395 1.8862 13.0784 1.97962C15.3096 2.35775 17.3448 3.41651 18.9615 5.02689C20.5781 6.64172 21.6336 8.67471 22.0121 10.9034C22.0923 11.3839 22.5065 11.7309 22.9964 11.7309H23.0053C23.0676 11.7309 23.1166 11.722 23.1567 11.7175C23.1611 11.7175 23.1611 11.7175 23.1656 11.7131C23.4328 11.6686 23.6644 11.5262 23.8158 11.3038C23.9717 11.0858 24.0296 10.8234 23.985 10.5653Z" fill="black"/>
</g>
<defs>
<clipPath id="clip0_3801_60">
<rect width="24" height="24" fill="white"/>
</clipPath>
</defs>
</svg>
